<svg version="1.1" id="Layer_1" xmlns="http://www.w3.org/2000/svg" xmlns:xlink="http://www.w3.org/1999/xlink" x="0px" y="0px"
	 width="100%" viewBox="0 0 5000 3000" enable-background="new 0 0 5000 3000" xml:space="preserve">
<path fill="#FFFFFF" opacity="1.000000" stroke="none" 
	d="
M3254.000000,3002.000000 
	C2169.333252,3002.000000 1085.666626,3002.000000 2.000000,3002.000000 
	C2.000000,2002.000000 2.000000,1002.000000 2.000000,2.000000 
	C1668.666626,2.000000 3335.333252,2.000000 5002.000000,2.000000 
	C5002.000000,1002.000000 5002.000000,2002.000000 5002.000000,3002.000000 
	C4419.666504,3002.000000 3837.333252,3002.000000 3254.000000,3002.000000 
M2102.832764,339.540588 
	C2106.114502,339.485809 2110.294189,340.690002 2112.495605,339.120331 
	C2117.431885,335.600952 2122.262207,336.109558 2126.713135,337.408173 
	C2129.560791,335.383820 2131.580078,332.800964 2133.879150,332.521606 
	C2141.880859,331.549255 2142.017090,326.045074 2143.239258,319.252075 
	C2169.694824,310.469513 2197.034424,308.606354 2225.649414,308.422455 
	C2224.695068,306.222687 2222.991211,305.306427 2221.235352,304.504120 
	C2212.195068,300.373138 2203.510498,294.827515 2194.029785,292.403778 
	C2147.141602,280.416687 2101.914795,287.016937 2059.021484,308.247498 
	C2001.126343,336.903412 1972.774414,389.936218 1979.598389,454.262085 
	C1980.399170,461.812195 1981.360718,469.345276 1982.247559,476.886230 
	C1978.827271,474.181213 1976.996948,470.805267 1975.149902,467.438477 
	C1954.481567,429.765137 1924.661743,402.091766 1884.212524,387.221405 
	C1820.157959,363.672913 1758.380127,371.025055 1699.365112,403.941559 
	C1673.955688,418.114044 1652.955322,437.462341 1637.652344,462.489716 
	C1635.894287,465.364990 1635.321655,468.964996 1633.698242,471.979309 
	C1633.698242,471.979309 1633.290894,472.608673 1633.290894,472.608673 
	C1633.290894,472.608673 1634.082764,472.061188 1635.541016,471.943878 
	C1646.490479,467.106964 1657.267334,461.824463 1668.417847,457.506958 
	C1730.894653,433.316010 1795.050171,424.370728 1861.291992,438.050537 
	C1896.047363,445.227966 1927.948975,458.875977 1954.158936,483.634186 
	C1958.637207,487.864410 1962.127930,493.140076 1965.821655,498.156158 
	C1965.821655,498.156158 1965.560547,498.369995 1964.029663,498.862274 
	C1956.301270,496.839752 1948.595459,494.726135 1940.840942,492.809326 
	C1885.031494,479.013702 1828.687256,472.990784 1771.468750,482.131134 
	C1725.192871,489.523438 1682.501221,505.685699 1647.307983,537.555786 
	C1599.391968,580.947327 1580.366089,634.924561 1591.671753,698.844971 
	C1599.261841,741.757263 1620.425415,777.974854 1648.824707,810.348389 
	C1649.608765,811.242065 1650.732300,811.837952 1653.216187,813.728516 
	C1653.216187,804.018738 1653.115845,795.833435 1653.233032,787.651367 
	C1653.841919,745.162476 1658.015381,703.194336 1671.899658,662.690552 
	C1691.341309,605.974243 1728.529053,566.441223 1785.087402,545.489746 
	C1810.896484,535.929016 1837.581787,530.623535 1864.866699,527.953003 
	C1902.132568,524.305603 1939.386841,525.324341 1976.670532,527.951172 
	C1982.998657,528.397034 1986.087891,530.787415 1988.320312,536.458130 
	C1996.734985,557.832947 2005.555786,579.047668 2014.182129,600.339478 
	C2015.649414,603.961243 2016.908691,607.667297 2018.376831,611.639282 
	C2015.660522,613.134338 2013.737549,614.367310 2011.678711,615.300720 
	C1946.561157,644.822327 1884.882690,680.281067 1826.630371,721.768311 
	C1727.223389,792.565918 1641.783447,877.439880 1570.559448,976.460876 
	C1487.517212,1091.911987 1428.844238,1218.757935 1395.305054,1357.034058 
	C1389.665405,1380.285278 1385.731201,1403.950073 1380.062866,1428.260132 
	C1365.050903,1436.869995 1350.039062,1445.479858 1335.027222,1454.089722 
	C1336.393921,1455.248901 1337.071777,1455.295044 1337.704468,1455.147095 
	C1419.142334,1436.120850 1501.379761,1421.705811 1584.382812,1411.411743 
	C1648.551025,1403.453613 1712.913330,1397.912476 1777.448242,1394.382202 
	C1854.002319,1390.194458 1930.647461,1388.577637 2007.285645,1390.321533 
	C2074.563232,1391.852295 2141.833008,1394.420532 2209.051025,1397.671631 
	C2266.278320,1400.439575 2323.468506,1404.291016 2380.600830,1408.639893 
	C2457.324707,1414.479980 2533.963379,1421.433105 2610.664795,1427.583130 
	C2675.415771,1432.775024 2740.187744,1437.730225 2804.979980,1442.377197 
	C2880.431396,1447.788574 2955.963379,1451.514038 3031.626953,1452.376221 
	C3136.371826,1453.569946 3240.812988,1449.894165 3344.552979,1434.059937 
	C3424.438721,1421.866577 3502.506348,1402.723145 3577.732422,1372.822754 
	C3610.221191,1359.909302 3642.151123,1345.769653 3672.081055,1328.208008 
	C3672.081055,1328.208008 3672.371338,1327.911133 3672.371338,1327.911133 
	C3672.371338,1327.911133 3672.275391,1328.390869 3670.532227,1327.933228 
	C3668.872314,1327.978149 3667.192139,1327.871826 3665.555420,1328.090210 
	C3633.234131,1332.406494 3600.944580,1336.977051 3568.586914,1341.000366 
	C3555.413086,1342.638306 3542.093262,1343.103882 3528.530029,1342.445190 
	C3519.828613,1306.460205 3508.454102,1271.301392 3495.588623,1236.618042 
	C3444.405762,1098.636353 3368.546387,975.805725 3268.182373,868.246704 
	C3167.818604,760.687927 3050.585205,676.414185 2916.551514,615.615784 
	C2914.211914,614.554504 2912.045410,613.111084 2910.085205,612.007629 
	C2910.085205,610.660156 2909.889404,609.933533 2910.113281,609.375305 
	C2920.155029,584.343567 2930.334961,559.366394 2940.222656,534.274231 
	C2942.201172,529.253113 2945.669678,528.234985 2950.354980,528.111145 
	C2976.659180,527.416260 3002.964355,525.870850 3029.261475,526.017639 
	C3062.357666,526.202271 3095.033203,530.609192 3126.855957,540.152649 
	C3174.307617,554.383240 3212.751221,580.642395 3238.178711,624.075867 
	C3252.137695,647.919250 3260.523193,673.827148 3265.964600,700.765076 
	C3272.859131,734.895752 3274.769287,769.447693 3274.518555,804.177002 
	C3274.498779,806.886536 3274.833496,809.598572 3275.057861,813.173706 
	C3277.000732,811.725403 3277.903320,811.259888 3278.533936,810.552063 
	C3299.801025,786.680054 3316.874512,760.183716 3327.650391,729.978027 
	C3341.375488,691.505798 3343.847900,652.509827 3330.831787,613.329224 
	C3315.197510,566.265930 3283.372314,532.985779 3240.435791,509.775421 
	C3200.311279,488.085052 3156.844238,479.316223 3111.615723,478.034424 
	C3064.230469,476.691498 3018.000000,484.057983 2972.451904,496.552368 
	C2969.111816,497.468536 2965.718018,498.189789 2962.349365,499.001648 
	C2961.968262,498.364380 2961.587402,497.727081 2961.206543,497.089783 
	C2963.210205,494.591827 2964.915039,491.758698 2967.272461,489.657440 
	C2974.968018,482.797638 2982.413574,475.506500 2990.827637,469.629883 
	C3027.564941,443.971283 3069.386230,434.039795 3113.362793,432.116577 
	C3173.875977,429.470184 3231.100098,442.939117 3285.559570,468.972107 
	C3288.427490,470.342865 3291.388428,471.519073 3296.199707,473.608154 
	C3287.312256,456.119324 3276.871826,442.472870 3264.105469,430.726837 
	C3221.595215,391.615753 3170.887451,373.127991 3113.579346,374.132538 
	C3041.189697,375.401489 2985.518311,406.135284 2950.518799,471.022156 
	C2949.564941,472.790497 2948.079346,474.272095 2945.724609,477.345917 
	C2946.905518,464.411438 2948.490723,453.526184 2948.796875,442.605072 
	C2950.368408,386.502991 2927.801270,342.974060 2879.334961,314.164825 
	C2839.903076,290.725830 2796.839355,282.785675 2751.415527,288.485657 
	C2735.814209,290.443359 2720.687744,294.647034 2707.433594,303.722198 
	C2705.525635,305.028564 2704.056641,306.975891 2701.446777,309.552307 
	C2845.381592,302.074493 2912.308105,408.672302 2918.899658,484.464050 
	C2916.212158,481.276581 2914.056641,478.852905 2912.045898,476.314636 
	C2892.316650,451.413116 2870.608154,428.458466 2845.564453,408.798798 
	C2816.137939,385.698303 2784.092529,367.715790 2747.241943,359.477966 
	C2705.074219,350.051636 2665.034180,354.949005 2628.247314,378.650269 
	C2599.978760,396.863495 2579.873535,422.337311 2566.018311,452.611755 
	C2559.259277,467.380859 2554.299072,482.973083 2546.977539,498.096741 
	C2544.766846,499.195679 2542.211914,499.906677 2540.429443,501.488281 
	C2538.010254,503.634979 2535.874756,506.257599 2534.167725,509.016418 
	C2530.998535,514.138062 2527.025879,514.679749 2521.560059,512.964600 
	C2513.472412,510.426636 2506.027344,512.133362 2498.054199,518.683716 
	C2474.728760,518.553772 2451.403564,518.423828 2427.730469,516.676086 
	C2420.957520,512.701233 2406.477051,512.811523 2401.053223,517.014954 
	C2400.398682,517.522217 2400.335449,518.792847 2398.535889,520.143188 
	C2397.023926,520.079468 2395.511963,520.015686 2393.836182,518.498047 
	C2391.896240,514.002197 2389.769531,509.575226 2388.075195,504.988556 
	C2386.719727,501.319122 2386.429932,497.181030 2384.685303,493.750183 
	C2382.690918,489.828339 2382.496826,486.351196 2384.115723,482.405487 
	C2385.892578,478.074890 2387.181152,473.616455 2384.788574,468.877594 
	C2383.565186,468.409149 2382.373047,467.783722 2381.104004,467.495361 
	C2374.882812,466.081726 2371.246338,463.111267 2371.738770,455.854767 
	C2372.044434,451.347961 2371.115967,446.566345 2369.772217,442.206726 
	C2368.892578,439.352722 2366.502197,435.068756 2364.402832,434.831146 
	C2357.246582,434.021240 2355.801025,429.963257 2355.581055,423.973846 
	C2355.461670,420.711609 2354.505859,417.482544 2353.961670,414.232788 
	C2353.162109,409.458771 2351.855957,405.157684 2346.295166,403.796173 
	C2340.343262,402.338928 2337.304199,398.793396 2337.853027,392.270142 
	C2338.187012,388.299500 2335.694824,386.017120 2331.697510,386.085144 
	C2325.380615,386.192627 2324.190918,382.596863 2323.842529,377.133759 
	C2323.394775,370.113678 2321.126221,368.879944 2315.061523,372.116486 
	C2311.375732,374.083435 2308.378174,374.493713 2304.939941,372.031067 
	C2303.643799,371.102570 2301.949219,370.148010 2300.457275,370.180420 
	C2295.326416,370.291779 2292.898193,368.062897 2291.220703,363.121368 
	C2289.181152,357.114502 2285.809814,355.987854 2279.540771,356.311859 
	C2276.058594,356.491821 2272.523926,355.822540 2269.023682,355.438690 
	C2265.431885,355.044861 2261.816406,354.036407 2258.285645,354.298889 
	C2256.720947,354.415222 2255.339844,356.996765 2252.365234,358.524292 
	C2250.911865,358.146271 2249.458740,357.768250 2247.786865,356.267792 
	C2246.361084,353.664551 2245.069824,354.363953 2242.178467,356.604523 
	C2239.452637,356.180328 2236.726562,355.756134 2233.508789,353.882843 
	C2233.046387,353.434662 2232.617432,352.638733 2232.116211,352.590607 
	C2224.646973,351.872864 2217.171143,350.917206 2209.689209,350.846924 
	C2207.804199,350.829224 2205.892090,353.719604 2202.375000,355.839111 
	C2198.960449,356.051514 2195.545898,356.263916 2191.823730,354.892426 
	C2189.931152,353.955322 2188.009521,352.160950 2186.150879,352.224152 
	C2176.234375,352.561432 2166.337402,353.442596 2156.425293,353.970245 
	C2151.546143,354.229950 2147.850830,355.125977 2145.333984,360.420929 
	C2142.416016,366.559845 2137.408691,371.240540 2129.474121,369.992981 
	C2123.228760,369.010925 2118.530762,371.453064 2114.685059,376.247040 
	C2113.027344,378.313416 2110.977295,380.070618 2109.062500,381.924011 
	C2104.862305,385.989594 2100.802979,388.844421 2094.057373,386.555756 
	C2087.610107,384.368347 2084.436768,387.059906 2081.999023,393.461731 
	C2080.978027,396.143311 2079.813965,399.188934 2077.762695,400.976379 
	C2072.811768,405.290710 2066.735596,408.292480 2064.698730,415.447327 
	C2064.324707,416.760284 2060.862061,417.718781 2058.745850,417.896851 
	C2054.836426,418.225739 2052.712158,419.906525 2051.753174,423.705505 
	C2051.193115,425.924774 2049.871582,427.946930 2048.937744,430.077667 
	C2046.801392,434.953186 2042.525146,434.672729 2038.734009,433.529633 
	C2034.660034,432.301178 2032.789307,427.903809 2034.484375,424.674683 
	C2037.489502,418.949463 2037.783203,411.987152 2043.374512,407.286346 
	C2046.715088,404.477753 2048.664062,399.928894 2050.977783,396.008301 
	C2053.120605,392.376953 2054.117676,388.210510 2059.644043,387.454620 
	C2061.921875,387.143097 2064.240234,383.981537 2065.691406,381.599396 
	C2067.361572,378.857544 2068.092285,375.543549 2069.226807,372.490082 
	C2075.348877,371.881897 2081.483643,371.632263 2083.384277,364.819000 
	C2084.777832,359.822540 2087.912598,357.610260 2092.417725,355.276276 
	C2098.447998,352.152069 2101.985107,346.375214 2100.934326,338.901154 
	C2100.934326,338.901154 2101.120605,338.781006 2102.832764,339.540588 
M1353.553955,2374.023438 
	C1356.073608,2373.286865 1358.562622,2372.415283 1361.117554,2371.833740 
	C1413.419556,2359.927734 1466.135986,2350.164307 1519.186035,2342.337158 
	C1551.799805,2337.525146 1584.587524,2333.899414 1617.267944,2329.524414 
	C1622.541260,2328.818604 1625.840576,2330.505859 1629.233643,2334.483887 
	C1654.122925,2363.663574 1680.548706,2391.386963 1708.440552,2417.735352 
	C1798.411621,2502.727783 1899.732788,2570.834961 2012.535034,2621.680420 
	C2142.242920,2680.145508 2278.381348,2711.853516 2420.494141,2717.458008 
	C2525.001221,2721.579102 2628.130371,2711.170654 2729.681641,2685.882568 
	C2852.083984,2655.402344 2965.796143,2605.171387 3070.954346,2535.543945 
	C3141.568359,2488.789307 3205.821533,2434.467285 3263.853516,2372.813232 
	C3268.713135,2367.649902 3273.771484,2364.781982 3280.931396,2364.086182 
	C3328.049805,2359.509766 3374.723877,2351.992432 3420.991943,2341.971191 
	C3502.434326,2324.331543 3580.831055,2297.997559 3655.081787,2259.862549 
	C3660.180420,2257.243896 3665.103271,2254.283203 3670.107910,2251.481689 
	C3666.644287,2250.978027 3663.725098,2251.540527 3660.861084,2252.308594 
	C3597.089355,2269.413818 3532.393555,2282.048096 3467.120850,2291.687744 
	C3385.297119,2303.771484 3302.972900,2311.100830 3220.333740,2313.492676 
	C3158.392334,2315.285889 3096.371582,2315.517578 3034.403564,2314.845215 
	C2981.768311,2314.274170 2929.131104,2311.966553 2876.544434,2309.410156 
	C2827.294678,2307.015869 2778.098633,2303.449707 2728.900146,2300.091309 
	C2690.342285,2297.459717 2651.808838,2294.456543 2613.278564,2291.437988 
	C2566.777344,2287.795166 2520.295898,2283.892578 2473.795898,2280.232422 
	C2435.601074,2277.225830 2397.405518,2274.200195 2359.184326,2271.560791 
	C2310.323486,2268.187012 2261.454102,2264.878906 2212.554932,2262.138428 
	C2176.625732,2260.124756 2140.649658,2258.876953 2104.682861,2257.621094 
	C1997.001587,2253.860107 1889.412231,2255.290039 1782.036011,2264.776855 
	C1712.290527,2270.938721 1643.096802,2281.041016 1574.735229,2296.386475 
	C1496.887695,2313.861572 1421.109131,2337.698975 1346.872559,2370.762207 
	C1342.940796,2372.550781 1339.009033,2374.339600 1335.077393,2376.128418 
	C1337.388306,2377.697998 1339.066650,2377.808594 1340.609497,2377.403076 
	C1344.423340,2376.400879 1348.175171,2375.161865 1353.553955,2374.023438 
M2455.110840,2082.091309 
	C2418.889160,2079.472900 2382.695801,2076.342773 2346.439209,2074.359375 
	C2295.538818,2071.574951 2244.609863,2069.068604 2193.661133,2067.456055 
	C2057.885742,2063.158203 1922.508179,2067.489502 1787.928589,2087.722900 
	C1722.324463,2097.585938 1657.598755,2111.394287 1593.998291,2130.279297 
	C1506.203369,2156.348877 1422.251099,2191.458008 1343.119995,2237.779053 
	C1340.517090,2239.302490 1337.992676,2240.959473 1335.431641,2242.554443 
	C1337.421387,2243.549805 1338.708374,2243.324951 1339.989380,2243.069580 
	C1388.616089,2233.375488 1437.099243,2222.875732 1485.905151,2214.190186 
	C1544.277954,2203.801514 1603.163818,2196.897705 1662.214600,2191.368408 
	C1722.950195,2185.681396 1783.793945,2182.010498 1844.747192,2180.014648 
	C1917.712769,2177.625244 1990.692017,2177.281738 2063.654785,2179.864746 
	C2117.931885,2181.786377 2172.210938,2183.866455 2226.444580,2186.723633 
	C2271.353271,2189.089844 2316.207031,2192.558838 2361.066895,2195.793701 
	C2399.278320,2198.548584 2437.473389,2201.546143 2475.658203,2204.653564 
	C2519.816895,2208.247070 2563.950928,2212.149902 2608.106445,2215.784424 
	C2644.959229,2218.818359 2681.813477,2221.858887 2718.692871,2224.538330 
	C2772.188965,2228.424805 2825.673096,2232.663086 2879.228760,2235.493164 
	C2928.799805,2238.112549 2978.447021,2239.655273 3028.081055,2240.646240 
	C3119.449463,2242.470215 3210.630859,2239.265381 3301.455811,2228.334717 
	C3359.053223,2221.403076 3415.976318,2211.030762 3472.044189,2196.065186 
	C3537.887939,2178.490234 3601.279785,2154.573730 3661.646973,2122.827637 
	C3664.894287,2121.120117 3668.041260,2119.221191 3671.234863,2117.411621 
	C3655.299316,2118.147949 3640.157471,2120.314453 3625.013184,2122.465820 
	C3559.316406,2131.799561 3493.260010,2137.119629 3426.994385,2139.974365 
	C3346.711914,2143.433105 3266.405518,2143.585205 3186.126465,2140.214111 
	C3132.868408,2137.978027 3079.622803,2135.222412 3026.423096,2131.878174 
	C2979.878418,2128.952637 2933.380859,2125.172852 2886.907715,2121.234375 
	C2839.777588,2117.240479 2792.705078,2112.566162 2745.603271,2108.233398 
	C2699.165283,2103.961426 2652.725830,2099.701660 2606.280029,2095.513184 
	C2556.516357,2091.025391 2506.744141,2086.627197 2455.110840,2082.091309 
z"/>
<path fill="#FE8003" opacity="1.000000" stroke="none" 
	d="
M2192.131348,356.476288 
	C2195.545898,356.263916 2198.960449,356.051514 2204.104980,355.707062 
	C2215.223633,355.493988 2224.612061,355.412933 2234.000732,355.331909 
	C2236.726562,355.756134 2239.452637,356.180328 2243.424561,356.902588 
	C2245.782227,357.263855 2246.893799,357.327026 2248.005371,357.390198 
	C2249.458740,357.768250 2250.911865,358.146271 2253.664551,358.959198 
	C2286.340088,367.334503 2312.262451,384.061127 2333.217529,408.509644 
	C2358.998779,438.588928 2373.489258,474.039764 2381.784668,512.336182 
	C2382.011230,513.382874 2381.599854,514.567810 2381.342529,517.097595 
	C2326.143066,473.586548 2266.278320,446.278107 2195.755859,445.380493 
	C2122.990967,444.454285 2043.775513,483.479797 2011.899292,515.708679 
	C2026.547485,542.482483 2041.177979,569.223938 2055.902344,596.136902 
	C2073.924072,589.618774 2091.322266,583.033752 2108.914062,577.014343 
	C2182.880615,551.705444 2258.725830,534.635193 2336.406494,525.822021 
	C2355.579590,523.646851 2374.800781,521.897156 2394.000000,519.951904 
	C2395.511963,520.015686 2397.023926,520.079468 2400.178223,520.099243 
	C2410.572998,519.468201 2419.325684,518.881104 2428.078125,518.293945 
	C2451.403564,518.423828 2474.728760,518.553772 2499.701660,518.868042 
	C2532.375000,521.399841 2563.412842,523.602539 2594.420898,526.165710 
	C2606.934326,527.200012 2619.383057,529.022766 2632.377930,530.876099 
	C2634.596436,531.392761 2636.298096,531.520020 2638.738770,531.938904 
	C2641.576416,532.443176 2643.675537,532.655762 2646.382324,533.221130 
	C2649.326904,533.768250 2651.663330,533.962524 2654.676270,534.538635 
	C2727.919922,547.996338 2798.625244,567.660156 2867.234619,594.755798 
	C2868.710449,595.338623 2870.316650,595.591614 2871.862061,595.998474 
	C2886.712891,568.785461 2901.328857,542.002686 2916.175293,514.798157 
	C2914.247559,513.050842 2912.430176,511.145874 2910.362793,509.569244 
	C2886.684570,491.511902 2861.227295,476.542786 2833.483398,465.594391 
	C2814.259766,458.008209 2794.742188,451.470703 2773.420654,449.106750 
	C2771.950928,448.765930 2771.066162,448.756714 2769.466309,448.472534 
	C2735.026855,443.318268 2701.678955,445.119202 2668.630371,453.485748 
	C2626.252686,464.214050 2588.751465,484.544678 2554.278809,510.959442 
	C2551.905273,512.778198 2549.371826,514.387756 2545.145508,517.321045 
	C2546.577393,509.215698 2547.551025,503.704193 2548.524658,498.192688 
	C2554.299072,482.973083 2559.259277,467.380859 2566.018311,452.611755 
	C2579.873535,422.337311 2599.978760,396.863495 2628.247314,378.650269 
	C2665.034180,354.949005 2705.074219,350.051636 2747.241943,359.477966 
	C2784.092529,367.715790 2816.137939,385.698303 2845.564453,408.798798 
	C2870.608154,428.458466 2892.316650,451.413116 2912.045898,476.314636 
	C2914.056641,478.852905 2916.212158,481.276581 2918.899658,484.464050 
	C2912.308105,408.672302 2845.381592,302.074493 2701.446777,309.552307 
	C2704.056641,306.975891 2705.525635,305.028564 2707.433594,303.722198 
	C2720.687744,294.647034 2735.814209,290.443359 2751.415527,288.485657 
	C2796.839355,282.785675 2839.903076,290.725830 2879.334961,314.164825 
	C2927.801270,342.974060 2950.368408,386.502991 2948.796875,442.605072 
	C2948.490723,453.526184 2946.905518,464.411438 2945.724609,477.345917 
	C2948.079346,474.272095 2949.564941,472.790497 2950.518799,471.022156 
	C2985.518311,406.135284 3041.189697,375.401489 3113.579346,374.132538 
	C3170.887451,373.127991 3221.595215,391.615753 3264.105469,430.726837 
	C3276.871826,442.472870 3287.312256,456.119324 3296.199707,473.608154 
	C3291.388428,471.519073 3288.427490,470.342865 3285.559570,468.972107 
	C3231.100098,442.939117 3173.875977,429.470184 3113.362793,432.116577 
	C3069.386230,434.039795 3027.564941,443.971283 2990.827637,469.629883 
	C2982.413574,475.506500 2974.968018,482.797638 2967.272461,489.657440 
	C2964.915039,491.758698 2963.210205,494.591827 2961.206543,497.089783 
	C2961.587402,497.727081 2961.968262,498.364380 2962.349365,499.001648 
	C2965.718018,498.189789 2969.111816,497.468536 2972.451904,496.552368 
	C3018.000000,484.057983 3064.230469,476.691498 3111.615723,478.034424 
	C3156.844238,479.316223 3200.311279,488.085052 3240.435791,509.775421 
	C3283.372314,532.985779 3315.197510,566.265930 3330.831787,613.329224 
	C3343.847900,652.509827 3341.375488,691.505798 3327.650391,729.978027 
	C3316.874512,760.183716 3299.801025,786.680054 3278.533936,810.552063 
	C3277.903320,811.259888 3277.000732,811.725403 3275.057861,813.173706 
	C3274.833496,809.598572 3274.498779,806.886536 3274.518555,804.177002 
	C3274.769287,769.447693 3272.859131,734.895752 3265.964600,700.765076 
	C3260.523193,673.827148 3252.137695,647.919250 3238.178711,624.075867 
	C3212.751221,580.642395 3174.307617,554.383240 3126.855957,540.152649 
	C3095.033203,530.609192 3062.357666,526.202271 3029.261475,526.017639 
	C3002.964355,525.870850 2976.659180,527.416260 2950.354980,528.111145 
	C2945.669678,528.234985 2942.201172,529.253113 2940.222656,534.274231 
	C2930.334961,559.366394 2920.155029,584.343567 2910.113281,609.375305 
	C2909.889404,609.933533 2910.085205,610.660156 2910.085205,612.007629 
	C2912.045410,613.111084 2914.211914,614.554504 2916.551514,615.615784 
	C3050.585205,676.414185 3167.818604,760.687927 3268.182373,868.246704 
	C3368.546387,975.805725 3444.405762,1098.636353 3495.588623,1236.618042 
	C3508.454102,1271.301392 3519.828613,1306.460205 3527.864258,1343.611450 
	C3514.374023,1345.735840 3501.549805,1346.693970 3488.559082,1346.905762 
	C3468.404785,1281.962402 3440.808594,1221.122559 3407.025391,1163.081177 
	C3356.705566,1076.629272 3294.192627,999.982544 3220.422607,932.484497 
	C3121.232666,841.728271 3008.548340,772.736755 2883.466064,723.782349 
	C2881.482910,723.006104 2879.280029,722.791382 2876.927490,722.257385 
	C2876.394287,724.261536 2876.025635,725.517639 2875.726807,726.790161 
	C2864.968262,772.586487 2858.078613,819.005615 2854.402100,865.859314 
	C2849.253906,931.470276 2850.840576,997.017944 2858.564941,1062.361206 
	C2866.790527,1131.946289 2881.378174,1200.258423 2901.127197,1267.466064 
	C2907.784668,1290.122314 2914.861328,1312.655518 2920.939453,1335.381348 
	C2917.164307,1335.227295 2914.197510,1334.914307 2911.226807,1334.650024 
	C2848.068359,1329.031494 2784.905762,1323.460327 2721.754639,1317.761597 
	C2711.859863,1316.868652 2702.016846,1315.401489 2692.174805,1313.282227 
	C2693.989258,1287.790039 2695.411865,1263.182129 2697.636719,1238.646973 
	C2704.501221,1162.948486 2717.100342,1088.134888 2733.028564,1013.852844 
	C2733.700439,1010.720032 2734.047363,1007.517639 2734.545654,1004.347717 
	C2733.963135,1003.956665 2733.380859,1003.565552 2732.798340,1003.174500 
	C2729.938965,1005.702454 2727.025391,1008.172119 2724.228027,1010.767090 
	C2683.208008,1048.822388 2638.765625,1081.942993 2587.506592,1105.130859 
	C2548.223877,1122.901001 2507.157227,1133.282837 2463.876709,1133.945923 
	C2415.681885,1134.684204 2370.172363,1123.282471 2326.673828,1103.121460 
	C2281.863770,1082.352539 2242.138184,1053.975098 2205.142578,1021.544067 
	C2202.461670,1019.193909 2199.668213,1016.972290 2195.627441,1013.609131 
	C2196.002930,1017.782776 2196.038330,1020.314697 2196.480469,1022.773376 
	C2204.023926,1064.698608 2212.813721,1106.442871 2218.869629,1148.580566 
	C2225.116211,1192.043945 2228.712891,1235.888184 2232.588379,1279.731079 
	C2221.052979,1279.517456 2210.400391,1278.892456 2199.743408,1278.802979 
	C2155.750244,1278.434204 2111.755859,1278.198608 2067.761719,1277.977905 
	C2053.107910,1277.904419 2038.453003,1278.021484 2023.898193,1277.261841 
	C2025.614990,1270.703003 2027.200806,1264.924561 2028.854736,1259.165771 
	C2051.907959,1178.893311 2067.587158,1097.247070 2073.605713,1013.896790 
	C2080.391113,919.927185 2073.883301,826.829956 2053.801270,734.733521 
	C2052.900879,730.604492 2051.744873,726.531189 2050.801270,722.800903 
	C2049.231201,722.579529 2048.538086,722.283752 2047.968628,722.439331 
	C2046.371216,722.875732 2044.804565,723.447693 2043.260620,724.054688 
	C1922.380371,771.580566 1812.847778,837.702515 1716.036255,924.462708 
	C1616.532104,1013.635864 1537.241211,1118.027588 1480.768921,1239.369385 
	C1455.689697,1293.257080 1435.651489,1348.949463 1421.751709,1407.362549 
	C1407.819458,1414.327759 1394.414185,1420.875854 1381.008911,1427.423828 
	C1385.731201,1403.950073 1389.665405,1380.285278 1395.305054,1357.034058 
	C1428.844238,1218.757935 1487.517212,1091.911987 1570.559448,976.460876 
	C1641.783447,877.439880 1727.223389,792.565918 1826.630371,721.768311 
	C1884.882690,680.281067 1946.561157,644.822327 2011.678711,615.300720 
	C2013.737549,614.367310 2015.660522,613.134338 2018.376831,611.639282 
	C2016.908691,607.667297 2015.649414,603.961243 2014.182129,600.339478 
	C2005.555786,579.047668 1996.734985,557.832947 1988.320312,536.458130 
	C1986.087891,530.787415 1982.998657,528.397034 1976.670532,527.951172 
	C1939.386841,525.324341 1902.132568,524.305603 1864.866699,527.953003 
	C1837.581787,530.623535 1810.896484,535.929016 1785.087402,545.489746 
	C1728.529053,566.441223 1691.341309,605.974243 1671.899658,662.690552 
	C1658.015381,703.194336 1653.841919,745.162476 1653.233032,787.651367 
	C1653.115845,795.833435 1653.216187,804.018738 1653.216187,813.728516 
	C1650.732300,811.837952 1649.608765,811.242065 1648.824707,810.348389 
	C1620.425415,777.974854 1599.261841,741.757263 1591.671753,698.844971 
	C1580.366089,634.924561 1599.391968,580.947327 1647.307983,537.555786 
	C1682.501221,505.685699 1725.192871,489.523438 1771.468750,482.131134 
	C1828.687256,472.990784 1885.031494,479.013702 1940.840942,492.809326 
	C1948.595459,494.726135 1956.301270,496.839752 1964.884766,499.060852 
	C1966.292847,499.159149 1966.845581,499.058838 1967.398438,498.958557 
	C1966.957275,498.616638 1966.515991,498.274719 1966.074951,497.932770 
	C1962.127930,493.140076 1958.637207,487.864410 1954.158936,483.634186 
	C1927.948975,458.875977 1896.047363,445.227966 1861.291992,438.050537 
	C1795.050171,424.370728 1730.894653,433.316010 1668.417847,457.506958 
	C1657.267334,461.824463 1646.490479,467.106964 1634.838135,472.046509 
	C1634.135254,472.149139 1634.199341,472.228973 1634.199341,472.228973 
	C1635.321655,468.964996 1635.894287,465.364990 1637.652344,462.489716 
	C1652.955322,437.462341 1673.955688,418.114044 1699.365112,403.941559 
	C1758.380127,371.025055 1820.157959,363.672913 1884.212524,387.221405 
	C1924.661743,402.091766 1954.481567,429.765137 1975.149902,467.438477 
	C1976.996948,470.805267 1978.827271,474.181213 1982.247559,476.886230 
	C1981.360718,469.345276 1980.399170,461.812195 1979.598389,454.262085 
	C1972.774414,389.936218 2001.126343,336.903412 2059.021484,308.247498 
	C2101.914795,287.016937 2147.141602,280.416687 2194.029785,292.403778 
	C2203.510498,294.827515 2212.195068,300.373138 2221.235352,304.504120 
	C2222.991211,305.306427 2224.695068,306.222687 2225.649414,308.422455 
	C2197.034424,308.606354 2169.694824,310.469513 2141.869629,319.673096 
	C2126.661865,324.823608 2112.951660,329.822601 2101.120605,338.781006 
	C2101.120605,338.781006 2100.934326,338.901154 2100.193848,339.018738 
	C2073.496094,354.658386 2053.028076,375.692535 2037.244629,401.361053 
	C2020.553711,428.505737 2006.262085,470.753662 2009.457886,483.533234 
	C2018.544800,472.779297 2027.206299,461.855774 2036.568970,451.570587 
	C2068.742920,416.227264 2105.206787,386.524445 2150.220947,368.971924 
	C2163.757080,363.693787 2178.137695,360.580994 2192.131348,356.476288 
M2494.947510,646.013306 
	C2428.543701,644.428467 2362.441162,647.899780 2296.681641,657.532654 
	C2225.104004,668.017761 2118.778564,693.646484 2103.146729,704.507568 
	C2104.035645,707.186707 2104.853271,710.043274 2105.918945,712.803955 
	C2137.501953,794.618774 2162.578613,878.442566 2183.140137,963.643311 
	C2184.502686,969.290894 2186.912354,973.051025 2191.941162,975.980957 
	C2222.780273,993.950073 2254.447021,1010.153992 2287.838135,1022.924927 
	C2375.082520,1056.292969 2464.319092,1064.240112 2555.714600,1043.925293 
	C2620.164062,1029.599731 2679.169189,1002.351013 2735.121582,967.838379 
	C2742.183594,963.482300 2745.993652,958.296814 2747.946289,950.220825 
	C2767.375244,869.874329 2791.650146,791.010071 2821.268066,713.812561 
	C2822.555176,710.457581 2823.658936,707.032227 2824.812500,703.740234 
	C2775.364746,679.124634 2602.023682,648.748474 2494.947510,646.013306 
z"/>
<path fill="#0FAAD7" opacity="1.000000" stroke="none" 
	d="
M1348.272827,2370.505371 
	C1421.109131,2337.698975 1496.887695,2313.861572 1574.735229,2296.386475 
	C1643.096802,2281.041016 1712.290527,2270.938721 1782.036011,2264.776855 
	C1889.412231,2255.290039 1997.001587,2253.860107 2104.682861,2257.621094 
	C2140.649658,2258.876953 2176.625732,2260.124756 2212.554932,2262.138428 
	C2261.454102,2264.878906 2310.323486,2268.187012 2359.184326,2271.560791 
	C2397.405518,2274.200195 2435.601074,2277.225830 2473.795898,2280.232422 
	C2520.295898,2283.892578 2566.777344,2287.795166 2613.278564,2291.437988 
	C2651.808838,2294.456543 2690.342285,2297.459717 2728.900146,2300.091309 
	C2778.098633,2303.449707 2827.294678,2307.015869 2876.544434,2309.410156 
	C2929.131104,2311.966553 2981.768311,2314.274170 3034.403564,2314.845215 
	C3096.371582,2315.517578 3158.392334,2315.285889 3220.333740,2313.492676 
	C3302.972900,2311.100830 3385.297119,2303.771484 3467.120850,2291.687744 
	C3532.393555,2282.048096 3597.089355,2269.413818 3660.861084,2252.308594 
	C3663.725098,2251.540527 3666.644287,2250.978027 3670.107910,2251.481689 
	C3665.103271,2254.283203 3660.180420,2257.243896 3655.081787,2259.862549 
	C3580.831055,2297.997559 3502.434326,2324.331543 3420.991943,2341.971191 
	C3374.723877,2351.992432 3328.049805,2359.509766 3280.931396,2364.086182 
	C3273.771484,2364.781982 3268.713135,2367.649902 3263.853516,2372.813232 
	C3205.821533,2434.467285 3141.568359,2488.789307 3070.954346,2535.543945 
	C2965.796143,2605.171387 2852.083984,2655.402344 2729.681641,2685.882568 
	C2628.130371,2711.170654 2525.001221,2721.579102 2420.494141,2717.458008 
	C2278.381348,2711.853516 2142.242920,2680.145508 2012.535034,2621.680420 
	C1899.732788,2570.834961 1798.411621,2502.727783 1708.440552,2417.735352 
	C1680.548706,2391.386963 1654.122925,2363.663574 1629.233643,2334.483887 
	C1625.840576,2330.505859 1622.541260,2328.818604 1617.267944,2329.524414 
	C1584.587524,2333.899414 1551.799805,2337.525146 1519.186035,2342.337158 
	C1466.135986,2350.164307 1413.419556,2359.927734 1361.117554,2371.833740 
	C1358.562622,2372.415283 1356.073608,2373.286865 1352.188843,2373.821289 
	C1349.973511,2372.581055 1349.123169,2371.543213 1348.272827,2370.505371 
M2798.813965,2364.095215 
	C2749.003906,2360.228271 2699.185547,2356.465088 2649.386230,2352.464844 
	C2600.915283,2348.571289 2552.471924,2344.335938 2504.001953,2340.431152 
	C2444.575928,2335.643311 2385.154053,2330.773682 2325.693359,2326.451416 
	C2282.837158,2323.335938 2239.942627,2320.601318 2197.024902,2318.524902 
	C2146.111328,2316.062256 2095.169922,2313.836426 2044.213745,2312.680176 
	C1967.576172,2310.940918 1890.922852,2311.424805 1814.311523,2314.484375 
	C1790.011719,2315.454590 1765.733887,2316.994141 1741.451660,2318.372803 
	C1736.692749,2318.642822 1731.959961,2319.369629 1725.501343,2320.072266 
	C1728.690063,2323.065430 1730.274658,2324.671631 1731.980469,2326.136719 
	C1807.531128,2391.028076 1890.673706,2444.079834 1981.015503,2485.931641 
	C2115.360596,2548.168457 2256.715088,2582.124756 2404.371338,2589.566162 
	C2490.804199,2593.921875 2576.841064,2589.051758 2662.253662,2574.248779 
	C2762.586914,2556.860352 2858.958740,2527.016357 2951.199463,2483.842529 
	C3011.414062,2455.658447 3068.527588,2422.181641 3122.623291,2383.556641 
	C3126.173828,2381.021729 3130.423340,2379.002930 3133.375488,2374.100586 
	C3127.864502,2374.100586 3123.578857,2374.122070 3119.293701,2374.096924 
	C3069.975098,2373.808838 3020.623291,2374.548096 2971.346924,2372.948975 
	C2914.426758,2371.101807 2857.573730,2367.192139 2798.813965,2364.095215 
z"/>
<path fill="#193159" opacity="1.000000" stroke="none" 
	d="
M2456.043457,2082.140381 
	C2506.744141,2086.627197 2556.516357,2091.025391 2606.280029,2095.513184 
	C2652.725830,2099.701660 2699.165283,2103.961426 2745.603271,2108.233398 
	C2792.705078,2112.566162 2839.777588,2117.240479 2886.907715,2121.234375 
	C2933.380859,2125.172852 2979.878418,2128.952637 3026.423096,2131.878174 
	C3079.622803,2135.222412 3132.868408,2137.978027 3186.126465,2140.214111 
	C3266.405518,2143.585205 3346.711914,2143.433105 3426.994385,2139.974365 
	C3493.260010,2137.119629 3559.316406,2131.799561 3625.013184,2122.465820 
	C3640.157471,2120.314453 3655.299316,2118.147949 3671.234863,2117.411621 
	C3668.041260,2119.221191 3664.894287,2121.120117 3661.646973,2122.827637 
	C3601.279785,2154.573730 3537.887939,2178.490234 3472.044189,2196.065186 
	C3415.976318,2211.030762 3359.053223,2221.403076 3301.455811,2228.334717 
	C3210.630859,2239.265381 3119.449463,2242.470215 3028.081055,2240.646240 
	C2978.447021,2239.655273 2928.799805,2238.112549 2879.228760,2235.493164 
	C2825.673096,2232.663086 2772.188965,2228.424805 2718.692871,2224.538330 
	C2681.813477,2221.858887 2644.959229,2218.818359 2608.106445,2215.784424 
	C2563.950928,2212.149902 2519.816895,2208.247070 2475.658203,2204.653564 
	C2437.473389,2201.546143 2399.278320,2198.548584 2361.066895,2195.793701 
	C2316.207031,2192.558838 2271.353271,2189.089844 2226.444580,2186.723633 
	C2172.210938,2183.866455 2117.931885,2181.786377 2063.654785,2179.864746 
	C1990.692017,2177.281738 1917.712769,2177.625244 1844.747192,2180.014648 
	C1783.793945,2182.010498 1722.950195,2185.681396 1662.214600,2191.368408 
	C1603.163818,2196.897705 1544.277954,2203.801514 1485.905151,2214.190186 
	C1437.099243,2222.875732 1388.616089,2233.375488 1339.989380,2243.069580 
	C1338.708374,2243.324951 1337.421387,2243.549805 1335.431641,2242.554443 
	C1337.992676,2240.959473 1340.517090,2239.302490 1343.119995,2237.779053 
	C1422.251099,2191.458008 1506.203369,2156.348877 1593.998291,2130.279297 
	C1657.598755,2111.394287 1722.324463,2097.585938 1787.928589,2087.722900 
	C1922.508179,2067.489502 2057.885742,2063.158203 2193.661133,2067.456055 
	C2244.609863,2069.068604 2295.538818,2071.574951 2346.439209,2074.359375 
	C2382.695801,2076.342773 2418.889160,2079.472900 2456.043457,2082.140381 
z"/>
<path fill="#193159" opacity="1.000000" stroke="none" 
	d="
M3488.725586,1347.652100 
	C3501.549805,1346.693970 3514.374023,1345.735840 3528.019043,1344.440308 
	C3542.093262,1343.103882 3555.413086,1342.638306 3568.586914,1341.000366 
	C3600.944580,1336.977051 3633.234131,1332.406494 3665.555420,1328.090210 
	C3667.192139,1327.871826 3668.872314,1327.978149 3671.410156,1328.081299 
	C3672.287842,1328.229248 3672.433105,1328.157471 3672.433105,1328.157471 
	C3642.151123,1345.769653 3610.221191,1359.909302 3577.732422,1372.822754 
	C3502.506348,1402.723145 3424.438721,1421.866577 3344.552979,1434.059937 
	C3240.812988,1449.894165 3136.371826,1453.569946 3031.626953,1452.376221 
	C2955.963379,1451.514038 2880.431396,1447.788574 2804.979980,1442.377197 
	C2740.187744,1437.730225 2675.415771,1432.775024 2610.664795,1427.583130 
	C2533.963379,1421.433105 2457.324707,1414.479980 2380.600830,1408.639893 
	C2323.468506,1404.291016 2266.278320,1400.439575 2209.051025,1397.671631 
	C2141.833008,1394.420532 2074.563232,1391.852295 2007.285645,1390.321533 
	C1930.647461,1388.577637 1854.002319,1390.194458 1777.448242,1394.382202 
	C1712.913330,1397.912476 1648.551025,1403.453613 1584.382812,1411.411743 
	C1501.379761,1421.705811 1419.142334,1436.120850 1337.704468,1455.147095 
	C1337.071777,1455.295044 1336.393921,1455.248901 1335.027222,1454.089722 
	C1350.039062,1445.479858 1365.050903,1436.869995 1380.535889,1427.842041 
	C1394.414185,1420.875854 1407.819458,1414.327759 1422.465332,1407.139771 
	C1424.943970,1406.016846 1426.216064,1405.606079 1427.414917,1405.040283 
	C1521.852417,1360.468140 1620.901001,1330.204590 1723.218628,1310.348633 
	C1814.927124,1292.551514 1907.609497,1283.180786 2000.922974,1279.691284 
	C2008.557983,1279.405884 2016.173950,1278.609985 2023.798706,1278.051392 
	C2038.453003,1278.021484 2053.107910,1277.904419 2067.761719,1277.977905 
	C2111.755859,1278.198608 2155.750244,1278.434204 2199.743408,1278.802979 
	C2210.400391,1278.892456 2221.052979,1279.517456 2233.536621,1279.972046 
	C2250.991211,1280.746826 2266.627441,1281.269165 2282.240723,1282.180542 
	C2319.114258,1284.332153 2356.001221,1286.334351 2392.837646,1289.015503 
	C2438.631104,1292.348633 2484.391602,1296.158081 2530.142822,1300.040894 
	C2563.290771,1302.854004 2596.392578,1306.212158 2629.530273,1309.151733 
	C2650.388672,1311.001953 2671.275635,1312.528198 2692.149902,1314.199829 
	C2702.016846,1315.401489 2711.859863,1316.868652 2721.754639,1317.761597 
	C2784.905762,1323.460327 2848.068359,1329.031494 2911.226807,1334.650024 
	C2914.197510,1334.914307 2917.164307,1335.227295 2921.838379,1335.649170 
	C2948.079102,1337.762085 2972.591064,1340.115967 2997.154053,1341.646973 
	C3048.284668,1344.834106 3099.427002,1347.895386 3150.592529,1350.445068 
	C3232.380127,1354.520386 3314.221924,1355.569824 3396.070557,1352.611328 
	C3426.974854,1351.494263 3457.841797,1349.335815 3488.725586,1347.652100 
z"/>
<path fill="#FFFEFC" opacity="1.000000" stroke="none" 
	d="
M2393.917969,519.224976 
	C2374.800781,521.897156 2355.579590,523.646851 2336.406494,525.822021 
	C2258.725830,534.635193 2182.880615,551.705444 2108.914062,577.014343 
	C2091.322266,583.033752 2073.924072,589.618774 2055.902344,596.136902 
	C2041.177979,569.223938 2026.547485,542.482483 2011.899292,515.708679 
	C2043.775513,483.479797 2122.990967,444.454285 2195.755859,445.380493 
	C2266.278320,446.278107 2326.143066,473.586548 2381.342529,517.097595 
	C2381.599854,514.567810 2382.011230,513.382874 2381.784668,512.336182 
	C2373.489258,474.039764 2358.998779,438.588928 2333.217529,408.509644 
	C2312.262451,384.061127 2286.340088,367.334503 2254.419434,358.926697 
	C2255.339844,356.996765 2256.720947,354.415222 2258.285645,354.298889 
	C2261.816406,354.036407 2265.431885,355.044861 2269.023682,355.438690 
	C2272.523926,355.822540 2276.058594,356.491821 2279.540771,356.311859 
	C2285.809814,355.987854 2289.181152,357.114502 2291.220703,363.121368 
	C2292.898193,368.062897 2295.326416,370.291779 2300.457275,370.180420 
	C2301.949219,370.148010 2303.643799,371.102570 2304.939941,372.031067 
	C2308.378174,374.493713 2311.375732,374.083435 2315.061523,372.116486 
	C2321.126221,368.879944 2323.394775,370.113678 2323.842529,377.133759 
	C2324.190918,382.596863 2325.380615,386.192627 2331.697510,386.085144 
	C2335.694824,386.017120 2338.187012,388.299500 2337.853027,392.270142 
	C2337.304199,398.793396 2340.343262,402.338928 2346.295166,403.796173 
	C2351.855957,405.157684 2353.162109,409.458771 2353.961670,414.232788 
	C2354.505859,417.482544 2355.461670,420.711609 2355.581055,423.973846 
	C2355.801025,429.963257 2357.246582,434.021240 2364.402832,434.831146 
	C2366.502197,435.068756 2368.892578,439.352722 2369.772217,442.206726 
	C2371.115967,446.566345 2372.044434,451.347961 2371.738770,455.854767 
	C2371.246338,463.111267 2374.882812,466.081726 2381.104004,467.495361 
	C2382.373047,467.783722 2383.565186,468.409149 2384.788574,468.877594 
	C2387.181152,473.616455 2385.892578,478.074890 2384.115723,482.405487 
	C2382.496826,486.351196 2382.690918,489.828339 2384.685303,493.750183 
	C2386.429932,497.181030 2386.719727,501.319122 2388.075195,504.988556 
	C2389.769531,509.575226 2391.896240,514.002197 2393.917969,519.224976 
z"/>
<path fill="#FFFEFC" opacity="1.000000" stroke="none" 
	d="
M2631.861084,530.486694 
	C2619.383057,529.022766 2606.934326,527.200012 2594.420898,526.165710 
	C2563.412842,523.602539 2532.375000,521.399841 2500.617188,518.680176 
	C2506.027344,512.133362 2513.472412,510.426636 2521.560059,512.964600 
	C2527.025879,514.679749 2530.998535,514.138062 2534.167725,509.016418 
	C2535.874756,506.257599 2538.010254,503.634979 2540.429443,501.488281 
	C2542.211914,499.906677 2544.766846,499.195679 2547.750977,498.144714 
	C2547.551025,503.704193 2546.577393,509.215698 2545.145508,517.321045 
	C2549.371826,514.387756 2551.905273,512.778198 2554.278809,510.959442 
	C2588.751465,484.544678 2626.252686,464.214050 2668.630371,453.485748 
	C2701.678955,445.119202 2735.026855,443.318268 2769.439941,449.201843 
	C2770.736816,451.111847 2771.344971,452.017639 2771.953125,452.923401 
	C2772.637207,451.761749 2773.321533,450.600067 2774.005615,449.438354 
	C2794.742188,451.470703 2814.259766,458.008209 2833.483398,465.594391 
	C2861.227295,476.542786 2886.684570,491.511902 2910.362793,509.569244 
	C2912.430176,511.145874 2914.247559,513.050842 2916.175293,514.798157 
	C2901.328857,542.002686 2886.712891,568.785461 2871.862061,595.998474 
	C2870.316650,595.591614 2868.710449,595.338623 2867.234619,594.755798 
	C2798.625244,567.660156 2727.919922,547.996338 2654.657227,533.757812 
	C2653.885986,529.917297 2652.772461,527.563782 2649.903809,528.397705 
	C2648.235107,528.882874 2647.132080,531.313171 2645.774658,532.868286 
	C2643.675537,532.655762 2641.576416,532.443176 2638.718262,531.224670 
	C2636.925781,528.919312 2635.892578,527.619873 2634.859375,526.320435 
	C2633.859863,527.709106 2632.860596,529.097900 2631.861084,530.486694 
z"/>
<path fill="#FFFEFC" opacity="1.000000" stroke="none" 
	d="
M2191.977539,355.684357 
	C2178.137695,360.580994 2163.757080,363.693787 2150.220947,368.971924 
	C2105.206787,386.524445 2068.742920,416.227264 2036.568970,451.570587 
	C2027.206299,461.855774 2018.544800,472.779297 2009.457886,483.533234 
	C2006.262085,470.753662 2020.553711,428.505737 2037.244629,401.361053 
	C2053.028076,375.692535 2073.496094,354.658386 2100.084473,339.000031 
	C2101.985107,346.375214 2098.447998,352.152069 2092.417725,355.276276 
	C2087.912598,357.610260 2084.777832,359.822540 2083.384277,364.819000 
	C2081.483643,371.632263 2075.348877,371.881897 2069.226807,372.490082 
	C2068.092285,375.543549 2067.361572,378.857544 2065.691406,381.599396 
	C2064.240234,383.981537 2061.921875,387.143097 2059.644043,387.454620 
	C2054.117676,388.210510 2053.120605,392.376953 2050.977783,396.008301 
	C2048.664062,399.928894 2046.715088,404.477753 2043.374512,407.286346 
	C2037.783203,411.987152 2037.489502,418.949463 2034.484375,424.674683 
	C2032.789307,427.903809 2034.660034,432.301178 2038.734009,433.529633 
	C2042.525146,434.672729 2046.801392,434.953186 2048.937744,430.077667 
	C2049.871582,427.946930 2051.193115,425.924774 2051.753174,423.705505 
	C2052.712158,419.906525 2054.836426,418.225739 2058.745850,417.896851 
	C2060.862061,417.718781 2064.324707,416.760284 2064.698730,415.447327 
	C2066.735596,408.292480 2072.811768,405.290710 2077.762695,400.976379 
	C2079.813965,399.188934 2080.978027,396.143311 2081.999023,393.461731 
	C2084.436768,387.059906 2087.610107,384.368347 2094.057373,386.555756 
	C2100.802979,388.844421 2104.862305,385.989594 2109.062500,381.924011 
	C2110.977295,380.070618 2113.027344,378.313416 2114.685059,376.247040 
	C2118.530762,371.453064 2123.228760,369.010925 2129.474121,369.992981 
	C2137.408691,371.240540 2142.416016,366.559845 2145.333984,360.420929 
	C2147.850830,355.125977 2151.546143,354.229950 2156.425293,353.970245 
	C2166.337402,353.442596 2176.234375,352.561432 2186.150879,352.224152 
	C2188.009521,352.160950 2189.931152,353.955322 2191.977539,355.684357 
z"/>
<path fill="#FFFEFC" opacity="1.000000" stroke="none" 
	d="
M2101.976562,339.160797 
	C2112.951660,329.822601 2126.661865,324.823608 2141.250977,320.127502 
	C2142.017090,326.045074 2141.880859,331.549255 2133.879150,332.521606 
	C2131.580078,332.800964 2129.560791,335.383820 2126.713135,337.408173 
	C2122.262207,336.109558 2117.431885,335.600952 2112.495605,339.120331 
	C2110.294189,340.690002 2106.114502,339.485809 2101.976562,339.160797 
z"/>
<path fill="#FFFEFC" opacity="1.000000" stroke="none" 
	d="
M2427.904297,517.484985 
	C2419.325684,518.881104 2410.572998,519.468201 2400.909180,519.882446 
	C2400.335449,518.792847 2400.398682,517.522217 2401.053223,517.014954 
	C2406.477051,512.811523 2420.957520,512.701233 2427.904297,517.484985 
z"/>
<path fill="#FFFEFC" opacity="1.000000" stroke="none" 
	d="
M2233.754883,354.607361 
	C2224.612061,355.412933 2215.223633,355.493988 2204.913574,355.424316 
	C2205.892090,353.719604 2207.804199,350.829224 2209.689209,350.846924 
	C2217.171143,350.917206 2224.646973,351.872864 2232.116211,352.590607 
	C2232.617432,352.638733 2233.046387,353.434662 2233.754883,354.607361 
z"/>
<path fill="#77C6D6" opacity="1.000000" stroke="none" 
	d="
M1347.572754,2370.633789 
	C1349.123169,2371.543213 1349.973511,2372.581055 1351.387817,2373.818359 
	C1348.175171,2375.161865 1344.423340,2376.400879 1340.609497,2377.403076 
	C1339.066650,2377.808594 1337.388306,2377.697998 1335.077393,2376.128418 
	C1339.009033,2374.339600 1342.940796,2372.550781 1347.572754,2370.633789 
z"/>
<path fill="#FFFEFC" opacity="1.000000" stroke="none" 
	d="
M2247.895996,356.828979 
	C2246.893799,357.327026 2245.782227,357.263855 2244.252197,356.814575 
	C2245.069824,354.363953 2246.361084,353.664551 2247.895996,356.828979 
z"/>
<path fill="#193159" opacity="1.000000" stroke="none" 
	d="
M3672.281738,1328.310059 
	C3672.275391,1328.390869 3672.371338,1327.911133 3672.371338,1327.911133 
	C3672.371338,1327.911133 3672.081055,1328.208008 3672.257080,1328.182739 
	C3672.433105,1328.157471 3672.287842,1328.229248 3672.281738,1328.310059 
z"/>
<path fill="#FE8003" opacity="1.000000" stroke="none" 
	d="
M1634.109009,472.105164 
	C1634.082764,472.061188 1633.290894,472.608673 1633.290894,472.608673 
	C1633.290894,472.608673 1633.698242,471.979309 1633.948730,472.104126 
	C1634.199341,472.228973 1634.135254,472.149139 1634.109009,472.105164 
z"/>
<path fill="#FFFFFE" opacity="1.000000" stroke="none" 
	d="
M3488.559082,1346.905762 
	C3457.841797,1349.335815 3426.974854,1351.494263 3396.070557,1352.611328 
	C3314.221924,1355.569824 3232.380127,1354.520386 3150.592529,1350.445068 
	C3099.427002,1347.895386 3048.284668,1344.834106 2997.154053,1341.646973 
	C2972.591064,1340.115967 2948.079102,1337.762085 2922.645264,1335.512817 
	C2914.861328,1312.655518 2907.784668,1290.122314 2901.127197,1267.466064 
	C2881.378174,1200.258423 2866.790527,1131.946289 2858.564941,1062.361206 
	C2850.840576,997.017944 2849.253906,931.470276 2854.402100,865.859314 
	C2858.078613,819.005615 2864.968262,772.586487 2875.726807,726.790161 
	C2876.025635,725.517639 2876.394287,724.261536 2876.927490,722.257385 
	C2879.280029,722.791382 2881.482910,723.006104 2883.466064,723.782349 
	C3008.548340,772.736755 3121.232666,841.728271 3220.422607,932.484497 
	C3294.192627,999.982544 3356.705566,1076.629272 3407.025391,1163.081177 
	C3440.808594,1221.122559 3468.404785,1281.962402 3488.559082,1346.905762 
z"/>
<path fill="#FFFEFE" opacity="1.000000" stroke="none" 
	d="
M2023.898193,1277.261841 
	C2016.173950,1278.609985 2008.557983,1279.405884 2000.922974,1279.691284 
	C1907.609497,1283.180786 1814.927124,1292.551514 1723.218628,1310.348633 
	C1620.901001,1330.204590 1521.852417,1360.468140 1427.414917,1405.040283 
	C1426.216064,1405.606079 1424.943970,1406.016846 1422.992432,1406.722656 
	C1435.651489,1348.949463 1455.689697,1293.257080 1480.768921,1239.369385 
	C1537.241211,1118.027588 1616.532104,1013.635864 1716.036255,924.462708 
	C1812.847778,837.702515 1922.380371,771.580566 2043.260620,724.054688 
	C2044.804565,723.447693 2046.371216,722.875732 2047.968628,722.439331 
	C2048.538086,722.283752 2049.231201,722.579529 2050.801270,722.800903 
	C2051.744873,726.531189 2052.900879,730.604492 2053.801270,734.733521 
	C2073.883301,826.829956 2080.391113,919.927185 2073.605713,1013.896790 
	C2067.587158,1097.247070 2051.907959,1178.893311 2028.854736,1259.165771 
	C2027.200806,1264.924561 2025.614990,1270.703003 2023.898193,1277.261841 
z"/>
<path fill="#FFFFFE" opacity="1.000000" stroke="none" 
	d="
M2495.936035,646.028564 
	C2602.023682,648.748474 2775.364746,679.124634 2824.812500,703.740234 
	C2823.658936,707.032227 2822.555176,710.457581 2821.268066,713.812561 
	C2791.650146,791.010071 2767.375244,869.874329 2747.946289,950.220825 
	C2745.993652,958.296814 2742.183594,963.482300 2735.121582,967.838379 
	C2679.169189,1002.351013 2620.164062,1029.599731 2555.714600,1043.925293 
	C2464.319092,1064.240112 2375.082520,1056.292969 2287.838135,1022.924927 
	C2254.447021,1010.153992 2222.780273,993.950073 2191.941162,975.980957 
	C2186.912354,973.051025 2184.502686,969.290894 2183.140137,963.643311 
	C2162.578613,878.442566 2137.501953,794.618774 2105.918945,712.803955 
	C2104.853271,710.043274 2104.035645,707.186707 2103.146729,704.507568 
	C2118.778564,693.646484 2225.104004,668.017761 2296.681641,657.532654 
	C2362.441162,647.899780 2428.543701,644.428467 2495.936035,646.028564 
z"/>
<path fill="#FEFEFD" opacity="1.000000" stroke="none" 
	d="
M2692.174805,1313.282227 
	C2671.275635,1312.528198 2650.388672,1311.001953 2629.530273,1309.151733 
	C2596.392578,1306.212158 2563.290771,1302.854004 2530.142822,1300.040894 
	C2484.391602,1296.158081 2438.631104,1292.348633 2392.837646,1289.015503 
	C2356.001221,1286.334351 2319.114258,1284.332153 2282.240723,1282.180542 
	C2266.627441,1281.269165 2250.991211,1280.746826 2234.416992,1279.806763 
	C2228.712891,1235.888184 2225.116211,1192.043945 2218.869629,1148.580566 
	C2212.813721,1106.442871 2204.023926,1064.698608 2196.480469,1022.773376 
	C2196.038330,1020.314697 2196.002930,1017.782776 2195.627441,1013.609131 
	C2199.668213,1016.972290 2202.461670,1019.193909 2205.142578,1021.544067 
	C2242.138184,1053.975098 2281.863770,1082.352539 2326.673828,1103.121460 
	C2370.172363,1123.282471 2415.681885,1134.684204 2463.876709,1133.945923 
	C2507.157227,1133.282837 2548.223877,1122.901001 2587.506592,1105.130859 
	C2638.765625,1081.942993 2683.208008,1048.822388 2724.228027,1010.767090 
	C2727.025391,1008.172119 2729.938965,1005.702454 2732.798340,1003.174500 
	C2733.380859,1003.565552 2733.963135,1003.956665 2734.545654,1004.347717 
	C2734.047363,1007.517639 2733.700439,1010.720032 2733.028564,1013.852844 
	C2717.100342,1088.134888 2704.501221,1162.948486 2697.636719,1238.646973 
	C2695.411865,1263.182129 2693.989258,1287.790039 2692.174805,1313.282227 
z"/>
<path fill="#FFFEFC" opacity="1.000000" stroke="none" 
	d="
M2646.382324,533.221069 
	C2647.132080,531.313171 2648.235107,528.882874 2649.903809,528.397705 
	C2652.772461,527.563782 2653.885986,529.917297 2653.980957,533.375977 
	C2651.663330,533.962524 2649.326904,533.768250 2646.382324,533.221069 
z"/>
<path fill="#FFFEFC" opacity="1.000000" stroke="none" 
	d="
M2632.377930,530.876099 
	C2632.860596,529.097900 2633.859863,527.709106 2634.859375,526.320435 
	C2635.892578,527.619873 2636.925781,528.919312 2637.979492,530.933044 
	C2636.298096,531.520020 2634.596436,531.392761 2632.377930,530.876099 
z"/>
<path fill="#FFFEFC" opacity="1.000000" stroke="none" 
	d="
M2773.420654,449.106750 
	C2773.321533,450.600067 2772.637207,451.761749 2771.953125,452.923401 
	C2771.344971,452.017639 2770.736816,451.111847 2770.154785,449.476807 
	C2771.066162,448.756714 2771.950928,448.765930 2773.420654,449.106750 
z"/>
<path fill="#FFFFFF" opacity="1.000000" stroke="none" 
	d="
M1965.948242,498.044495 
	C1966.515991,498.274719 1966.957275,498.616638 1967.398438,498.958557 
	C1966.845581,499.058838 1966.292847,499.159149 1965.650269,498.814728 
	C1965.560547,498.369995 1965.821655,498.156158 1965.948242,498.044495 
z"/>
<path fill="#FEFFFF" opacity="1.000000" stroke="none" 
	d="
M2799.752686,2364.136719 
	C2857.573730,2367.192139 2914.426758,2371.101807 2971.346924,2372.948975 
	C3020.623291,2374.548096 3069.975098,2373.808838 3119.293701,2374.096924 
	C3123.578857,2374.122070 3127.864502,2374.100586 3133.375488,2374.100586 
	C3130.423340,2379.002930 3126.173828,2381.021729 3122.623291,2383.556641 
	C3068.527588,2422.181641 3011.414062,2455.658447 2951.199463,2483.842529 
	C2858.958740,2527.016357 2762.586914,2556.860352 2662.253662,2574.248779 
	C2576.841064,2589.051758 2490.804199,2593.921875 2404.371338,2589.566162 
	C2256.715088,2582.124756 2115.360596,2548.168457 1981.015503,2485.931641 
	C1890.673706,2444.079834 1807.531128,2391.028076 1731.980469,2326.136719 
	C1730.274658,2324.671631 1728.690063,2323.065430 1725.501343,2320.072266 
	C1731.959961,2319.369629 1736.692749,2318.642822 1741.451660,2318.372803 
	C1765.733887,2316.994141 1790.011719,2315.454590 1814.311523,2314.484375 
	C1890.922852,2311.424805 1967.576172,2310.940918 2044.213745,2312.680176 
	C2095.169922,2313.836426 2146.111328,2316.062256 2197.024902,2318.524902 
	C2239.942627,2320.601318 2282.837158,2323.335938 2325.693359,2326.451416 
	C2385.154053,2330.773682 2444.575928,2335.643311 2504.001953,2340.431152 
	C2552.471924,2344.335938 2600.915283,2348.571289 2649.386230,2352.464844 
	C2699.185547,2356.465088 2749.003906,2360.228271 2799.752686,2364.136719 
z"/>
</svg>